<?xml version="1.0" standalone="no"?>
<!DOCTYPE svg PUBLIC "-//W3C//DTD SVG 20010904//EN"
        "http://www.w3.org/TR/2001/REC-SVG-20010904/DTD/svg10.dtd">
<svg version="1.0" xmlns="http://www.w3.org/2000/svg"
     width="16.000000pt" height="16.000000pt" viewBox="0 0 16.000000 16.000000"
     preserveAspectRatio="xMidYMid meet">
    <metadata>
        Created by potrace 1.11, written by Peter Selinger 2001-2013
    </metadata>
    <g transform="translate(0.000000,16.000000) scale(0.006154,-0.006154)"
       fill="#000000" stroke="none">
        <path d="M163 2025 c-53 -23 -76 -90 -46 -139 10 -15 41 -41 68 -56 28 -16
182 -102 343 -192 160 -89 292 -165 292 -168 0 -5 -289 -167 -505 -284 -148
-80 -198 -117 -209 -153 -16 -58 23 -117 84 -126 29 -5 61 8 155 61 118 66
167 94 236 131 307 167 659 366 659 373 0 5 -8 12 -17 15 -10 4 -45 22 -78 41
-33 19 -159 89 -280 157 -307 171 -297 165 -425 235 -63 35 -134 73 -158 86
-55 31 -81 35 -119 19z"/>
        <path d="M1205 489 c-32 -9 -65 -53 -65 -88 0 -36 22 -70 55 -86 29 -13 112
-15 628 -15 377 0 605 4 623 10 35 12 55 42 60 88 3 28 -3 41 -30 68 l-33 33
-604 0 c-332 0 -618 -5 -634 -10z"/>
    </g>
</svg>
